PathFileType	4	(X/Y/Z)	Patient4_TMGait_0pt6_01_left_17.trc.trc
DataRate	CameraRate	NumFrames	NumMarkers	Units	OrigDataRate	OrigDataStartFrame	OrigNumFrames
83.832335329341	83.832335329341	4	33	mm	83.832335329341	1	       141
Frame#	Time	Sacral			L.Shoulder			Chest			R.Shoulder			Neck			R.ASIS			L.ASIS			R.Thigh.Superior			R.Thigh.Lateral			R.Thigh.Inferior			R.Patella			L.Thigh.Superior			L.Thigh.Lateral			L.Thigh.Inferior			L.Patella			L.Shank.Superior			L.Shank.Lateral			L.Shank.Inferior			R.Shank.Superior			R.Shank.Lateral			R.Shank.Inferior			R.Heel			R.Midfoot.Superior			R.Midfoot.Lateral			R.Toe			L.Heel			L.Midfoot.Lateral			L.Midfoot.Superior			L.Toe			L.Elbow			L.Wrist			R.Elbow			R.Wrist			
		X1	Y1	Z1	X2	Y2	Z2	X3	Y3	Z3	X4	Y4	Z4	X5	Y5	Z5	X6	Y6	Z6	X7	Y7	Z7	X8	Y8	Z8	X9	Y9	Z9	X10	Y10	Z10	X11	Y11	Z11	X12	Y12	Z12	X13	Y13	Z13	X14	Y14	Z14	X15	Y15	Z15	X16	Y16	Z16	X17	Y17	Z17	X18	Y18	Z18	X19	Y19	Z19	X20	Y20	Z20	X21	Y21	Z21	X22	Y22	Z22	X23	Y23	Z23	X24	Y24	Z24	X25	Y25	Z25	X26	Y26	Z26	X27	Y27	Z27	X28	Y28	Z28	X29	Y29	Z29	X30	Y30	Z30	X31	Y31	Z31	X32	Y32	Z32	X33	Y33	Z33	

1	20.690000000000	638.266764661858	1008.056049960505	510.499202189202	800.050506577625	1433.241715945152	318.750226089974	907.949164811976	1369.432998515948	478.909151503463	827.268639308709	1442.191096889093	653.294059584806	784.570565444617	1496.695991237878	472.147103219496	866.790996860458	947.511912305337	627.017956774410	850.362756714533	961.679252593572	353.011140208628	903.482406589029	741.107567909003	595.517694766740	816.338331188530	633.982269189314	650.666376806987	890.185256333538	581.104786704631	569.254400140254	886.379623645251	494.045023479107	570.842169522520	937.665849207129	782.316338833548	389.014612593671	902.864110380524	658.623288012374	305.999415136960	1005.359450959742	598.917762085512	372.442723854415	1022.938163090811	509.639368968074	365.421225695402	958.952620615023	440.069964641729	355.736369442179	820.121766871277	390.764309134846	304.630489319714	814.792394571258	259.679724936890	357.780536591293	860.176968984234	405.163327769330	575.368488797903	789.683704534081	299.708501795319	633.777411789593	830.995539228603	207.016557425521	567.541707574829	695.837872860988	42.569269433380	533.913220068863	867.349471660651	96.770655279671	570.981280810658	778.320498196357	36.683445876451	609.550974605939	986.897656192339	42.838120958728	600.558985961485	628.127568511617	191.498890742600	396.554220868488	682.866719692066	144.495988116769	314.887524659530	789.037247627855	151.161052015855	333.086941943685	864.139120239370	37.128144112586	303.630859771619	787.594987391305	1070.315077763291	225.442986002986	863.341696763547	821.483178227752	224.117188795881	846.654732563877	1097.306300129835	786.305573038820	1045.979966774129	930.582791602921	770.698365287108	
2	20.701928571429	637.475420345623	1008.731493046037	512.175610401099	799.269641268003	1433.235675611910	319.595306659650	908.098174733091	1369.251252849470	479.054728568104	828.937957150627	1442.681263978480	653.851681567817	784.988521484138	1496.900009363735	473.004447806185	866.116785997138	947.142903828458	627.091805509391	848.175284885868	962.323876134175	353.321487561667	900.262930758757	740.272071589639	594.867177061291	812.857097743335	633.938607055108	650.926579344829	885.388881698461	580.462311320981	568.914159403449	880.786101724543	493.564331128643	570.763311645243	936.554130140690	784.726223574411	389.289648266633	902.497049857452	660.247295340276	306.594378881726	1005.596792417946	601.774422552636	372.800829823859	1024.649093558660	513.866038755849	365.478955633985	964.682530136543	442.906269302785	355.336508798732	829.808537712391	385.014243818541	305.474141235325	834.451103460920	254.320347039579	357.457219544946	854.188298966261	404.796321240452	575.371941680942	783.310100696521	299.644910940957	633.852344330891	824.052805560089	206.767017867854	567.529435021015	688.276571575454	42.554341415649	533.937876621716	859.694357472081	96.694805217344	570.985971485893	770.703033508668	36.658997251105	609.538409832982	979.297020032396	42.730149297132	600.612191074786	655.184408571890	172.580351855185	397.951276411299	711.617045521305	131.277388726208	315.068833972812	816.223482458892	145.787298250383	332.313739393011	898.746197652469	39.305041994041	300.425348570235	780.075043589966	1070.555999926030	227.019028504420	846.926325347041	819.886673796758	226.939000410622	856.084863654301	1099.165987225490	787.346803414812	1063.620533470754	946.328414343157	769.142328167644	
3	20.713857142857	636.691596166319	1009.372469005862	513.808964500524	798.510101482505	1433.222204213625	320.421071387521	908.250258523035	1369.041985647093	479.184695607434	830.591298561847	1443.118861019591	654.392673307968	785.405938225960	1497.071403827234	473.849632343956	865.448390606563	946.758869346442	627.143406764398	846.041242115887	962.918180788609	353.603182828510	897.111866117078	739.438561239172	594.233352473623	809.424437340058	633.881214247820	651.181686887821	880.668187845695	579.815553434754	568.590830887243	875.282122211905	493.078792407889	570.691075228764	935.394118566964	786.962644681393	389.526474948073	901.982883787219	661.716728250126	307.153153683913	1005.626039336156	604.410609179595	373.176501075710	1026.152894610300	517.941281858372	365.596681065201	970.216084368837	445.668062713262	355.056159203599	839.575394429615	379.267318691883	306.175877316682	853.967862334642	249.152296826633	357.220125020563	848.287440837321	404.421472431594	575.379059844124	777.022917869437	299.571876608338	633.926024432445	817.194853677073	206.511016120070	567.515661151248	680.796542502896	42.541306882076	533.962042308354	852.128158046598	96.616890712495	570.985805096397	763.171532615950	36.633369342929	609.521495386914	971.779733874649	42.620364698871	600.665363601804	682.176444238608	154.115067467676	399.099819673386	740.422175635047	118.414677012035	315.222905215275	843.304096340204	140.671560974131	331.731651455671	933.126195086377	41.748548210847	297.833225284669	772.566538052409	1070.836555581973	228.551821757058	830.771215185027	818.408382270444	229.726042605161	865.403064377540	1100.979202182136	788.324505930629	1080.889874557934	961.953480412275	767.576897646125	
4	20.725785714286	635.922005245806	1009.947219009750	515.355027794267	797.790420834803	1433.196177680213	321.205986800363	908.407091630068	1368.780725456923	479.280438654868	832.213340901560	1443.455243521729	654.897061525867	785.820710065665	1497.182115236397	474.664848794754	864.795074142973	946.344389888479	627.145813253032	844.004710840721	963.418297550183	353.821362956682	894.081064543687	738.601974531359	593.627260679125	806.068593080659	633.795541201985	651.420603709027	876.070580661143	579.155034033079	568.293393067090	869.920466821977	492.578061304047	570.624557542681	934.125269672256	788.865579756365	389.693042705339	901.198637470655	662.900158763931	307.635700785776	1005.263064675272	606.632898131378	373.584416411033	1027.260822903481	521.731164116210	365.825837768435	975.374501333296	448.297132325733	354.984699223152	849.471146651366	373.553740806399	306.643264449209	873.211743839447	244.383980139439	357.149042383570	842.517152576658	404.025457840807	575.385308211319	770.860029552770	299.483116866702	633.995163011882	810.450890771019	206.242259097005	567.497274080884	673.415850346148	42.534185136219	533.984796707192	844.676702174116	96.536676740145	570.978335349154	755.747177849590	36.605838150135	609.495517420555	964.366592512562	42.507031491584	600.718839305005	709.064425801297	136.566159042682	399.854708743412	769.305635905194	106.283825187411	315.364004228432	870.164891131934	136.092018080691	331.502026101621	967.029057222277	44.745197241055	296.326211809522	765.062211362636	1071.205810765460	230.007446713309	815.053554293300	817.170459891052	232.439921894561	874.546525382857	1102.717598268886	789.155039248320	1097.475521770896	977.404616539746	765.972965726593	
